<svg width="706" height="800" viewBox="0 0 706 800" xmlns="http://www.w3.org/2000/svg" fill="#507C5C"
    stroke="#CFF09EFF">
    <g style="mix-blend-mode:darken">
        <path
            d="M456.521 447.676C456.521 504.844 410.177 551.188 353.009 551.188C295.841 551.188 249.498 504.844 249.498 447.676C249.498 390.508 295.841 344.165 353.009 344.165C410.177 344.165 456.521 390.508 456.521 447.676Z"
            stroke-width="210" />
        <path
            d="M353 680.163C224.811 680.163 120.521 575.874 120.521 447.684C120.521 319.494 224.81 215.205 353 215.205C481.19 215.205 585.479 319.494 585.479 447.684C585.479 575.874 481.192 680.163 353 680.163ZM353 263.14C251.241 263.14 168.455 345.925 168.455 447.684C168.455 549.443 251.241 632.229 353 632.229C454.759 632.229 537.545 549.443 537.545 447.684C537.545 345.925 454.757 263.14 353 263.14Z" />
        <path
            d="M402.898 442.414C395.644 437.395 382.601 432.184 364.098 426.917V372.464C371.706 373.713 377.472 377.389 381.265 383.405C383.864 387.634 385.459 392.678 386.014 398.394C386.251 400.85 388.317 402.727 390.786 402.727H413.384C414.678 402.727 415.915 402.205 416.818 401.28C417.72 400.355 418.211 399.103 418.178 397.811C417.768 381.961 412.422 368.927 402.283 359.069C393.178 350.213 380.345 344.806 364.101 342.961V330.297C364.101 327.652 361.955 325.503 359.308 325.503H346.95C344.305 325.503 342.156 327.65 342.156 330.297V342.98C325.7 344.094 312.48 349.974 302.805 360.495C292.381 371.841 287.097 384.895 287.097 399.294C287.097 415.419 292.147 428.239 302.086 437.38C310.92 445.612 324.388 451.726 342.156 455.579V517.09C331.934 515.3 324.998 510.878 321.034 503.667C319.184 500.282 316.797 493.386 315.925 479.743C315.764 477.22 313.67 475.258 311.141 475.258H288.322C285.677 475.258 283.528 477.404 283.528 480.051C283.528 496.056 286.106 508.414 291.402 517.814C300.694 534.507 317.756 544.21 342.159 546.698V565.076C342.159 567.721 344.306 569.87 346.953 569.87H359.311C361.956 569.87 364.105 567.723 364.105 565.076V546.521C378.376 544.549 389.701 540.914 397.822 535.689C414.32 525 422.618 507.101 422.481 482.515C422.475 464.901 415.89 451.411 402.898 442.414ZM364.098 461.156C372.709 463.92 377.247 466.358 379.605 468.028C386.306 472.773 389.562 479.57 389.562 488.803C389.562 494.817 388.311 500.003 385.729 504.667C381.595 512.186 374.494 516.546 364.097 517.918V461.156H364.098ZM320.009 397.809C320.009 391.736 322.089 385.97 326.353 380.202C329.555 375.924 334.859 373.242 342.155 372.197V421.945C335.972 420.131 330.964 417.6 326.977 414.287C322.286 410.311 320.009 404.922 320.009 397.809Z" />
        <path
            d="M681.346 423.717C668.111 423.717 657.378 434.45 657.378 447.684C657.378 615.52 520.835 752.063 353 752.063C185.165 752.063 48.6199 615.52 48.6199 447.684C48.6199 279.849 185.165 143.306 353 143.306C436.965 143.306 515.156 176.76 573.165 237.51C582.305 247.085 597.482 247.437 607.052 238.291C608.094 237.294 609.008 236.218 609.83 235.094L658.418 186.507C667.777 177.148 667.777 161.973 658.418 152.61C649.057 143.254 633.885 143.254 624.521 152.61L590.072 187.063C531.009 133.131 456.781 101.478 376.969 96.1903V47.9342H429.295C442.529 47.9342 453.262 37.2014 453.262 23.9671C453.262 10.7328 442.531 0 429.295 0H276.708C263.474 0 252.741 10.7328 252.741 23.9671C252.741 37.2014 263.474 47.9342 276.708 47.9342H329.034V96.2028C247.31 101.72 173.135 135.209 116.048 187.181L81.476 152.609C72.1151 143.253 56.9433 143.253 47.5793 152.609C38.2199 161.968 38.2199 177.143 47.5793 186.506L82.8635 221.79C31.5996 282.994 0.687256 361.792 0.687256 447.686C0.687256 641.952 158.734 799.998 353 799.998C547.266 799.998 705.313 641.952 705.313 447.686C705.313 434.45 694.583 423.717 681.346 423.717Z" />
    </g>
</svg>