<?xml version="1.0" encoding="iso-8859-1"?>
<svg height="800px" width="800px" version="1.1" id="Layer_1" xmlns="http://www.w3.org/2000/svg"
	xmlns:xlink="http://www.w3.org/1999/xlink" viewBox="0 0 512.002 512.002" xml:space="preserve" fill="#507C5C">

	<path d="M256.001,435.306c-82.041,0-148.787-66.745-148.787-148.787s66.745-148.787,148.787-148.787
		s148.787,66.745,148.787,148.787S338.044,435.306,256.001,435.306z M256.001,168.41c-65.126,0-118.109,52.983-118.109,118.109
		s52.983,118.109,118.109,118.109S374.11,351.645,374.11,286.519S321.126,168.41,256.001,168.41z" />
	<path d="M287.936,283.146c-4.643-3.212-12.99-6.547-24.832-9.918v-34.85
		c4.869,0.799,8.559,3.152,10.987,7.002c1.663,2.707,2.684,5.935,3.039,9.593c0.152,1.572,1.474,2.773,3.054,2.773h14.463
		c0.828,0,1.62-0.334,2.198-0.926c0.577-0.592,0.891-1.393,0.87-2.22c-0.262-10.144-3.684-18.486-10.173-24.795
		c-5.827-5.668-14.04-9.128-24.436-10.309v-8.105c0-1.693-1.374-3.068-3.068-3.068h-7.909c-1.693,0-3.068,1.374-3.068,3.068v8.117
		c-10.532,0.713-18.993,4.476-25.185,11.21c-6.671,7.261-10.053,15.616-10.053,24.831c0,10.32,3.232,18.525,9.593,24.375
		c5.654,5.269,14.273,9.182,25.645,11.648v39.367c-6.542-1.146-10.981-3.976-13.518-8.591c-1.184-2.166-2.712-6.58-3.27-15.311
		c-0.103-1.615-1.443-2.871-3.062-2.871h-14.604c-1.693,0-3.068,1.374-3.068,3.068c0,10.243,1.65,18.152,5.039,24.168
		c5.947,10.684,16.867,16.894,32.485,18.486v11.762c0,1.693,1.374,3.068,3.068,3.068h7.909c1.693,0,3.068-1.374,3.068-3.068v-11.875
		c9.134-1.262,16.382-3.589,21.579-6.933c10.559-6.841,15.87-18.296,15.782-34.031C300.465,297.538,296.251,288.904,287.936,283.146
		z M263.104,295.141c5.511,1.769,8.415,3.329,9.924,4.398c4.289,3.037,6.373,7.387,6.373,13.296c0,3.849-0.801,7.168-2.453,10.153
		c-2.646,4.812-7.191,7.603-13.845,8.481V295.141z M234.887,254.599c0-3.887,1.331-7.577,4.06-11.269
		c2.049-2.738,5.444-4.454,10.113-5.123v31.839c-3.957-1.161-7.162-2.781-9.714-4.901
		C236.344,262.6,234.887,259.151,234.887,254.599z" />
	<path
		d="M466.143,271.18c-8.47,0-15.339,6.869-15.339,15.339c0,107.415-87.388,194.803-194.803,194.803
		S61.197,393.934,61.197,286.519S148.586,91.716,256.001,91.716c53.738,0,103.78,21.411,140.906,60.291
		c5.85,6.128,15.563,6.353,21.688,0.5c0.667-0.638,1.252-1.327,1.778-2.046l31.096-31.096c5.99-5.99,5.99-15.702,0-21.694
		c-5.991-5.988-15.701-5.988-21.694,0l-22.047,22.05c-37.801-34.517-85.307-54.775-136.387-58.159V30.678h33.489
		c8.47,0,15.339-6.869,15.339-15.339S313.301,0,304.83,0h-97.656c-8.47,0-15.339,6.869-15.339,15.339s6.869,15.339,15.339,15.339
		h33.489V61.57c-52.304,3.531-99.776,24.964-136.312,58.226L82.225,97.67c-5.991-5.988-15.701-5.988-21.694,0
		c-5.99,5.99-5.99,15.702,0,21.694l22.582,22.582C50.304,181.117,30.52,231.548,30.52,286.52
		c0,124.331,101.15,225.481,225.481,225.481s225.481-101.15,225.481-225.481C481.482,278.049,474.615,271.18,466.143,271.18z" />
</svg>